<?xml version="1.0" encoding="utf-8"?>
<!-- Generator: Adobe Illustrator 22.1.0, SVG Export Plug-In . SVG Version: 6.00 Build 0)  -->
<svg version="1.1" id="Layer_1" xmlns="http://www.w3.org/2000/svg" xmlns:xlink="http://www.w3.org/1999/xlink" x="0px" y="0px"
	 viewBox="0 0 71.9 9" style="enable-background:new 0 0 71.9 9;" xml:space="preserve">
<style type="text/css">
	.st0{fill:#D1ECF1;}
	.st1{fill:#FFFFFF;}
</style>
<g>
	<path class="st0" d="M3.2,5.4L0,0.2h1.7L4,4l2.2-3.8h1.7L4.7,5.4v3.4H3.2V5.4z"/>
	<path class="st1" d="M9.7,5.9c0,0.3,0.1,0.6,0.2,0.8C10,7,10.2,7.2,10.4,7.3c0.2,0.1,0.4,0.3,0.7,0.3c0.3,0.1,0.5,0.1,0.8,0.1
		c0.3,0,0.6,0,0.8-0.1c0.2-0.1,0.4-0.2,0.6-0.3c0.1-0.1,0.2-0.3,0.3-0.4c0.1-0.2,0.1-0.3,0.1-0.5c0-0.3-0.1-0.6-0.2-0.7
		c-0.1-0.2-0.3-0.3-0.5-0.3c-0.3-0.1-0.7-0.2-1.1-0.3s-0.9-0.2-1.5-0.4c-0.4-0.1-0.7-0.2-0.9-0.4C9.3,4.2,9.1,4,9,3.8
		C8.8,3.6,8.7,3.4,8.7,3.2C8.6,3,8.6,2.7,8.6,2.5c0-0.4,0.1-0.8,0.3-1.1C9,1.1,9.3,0.8,9.6,0.6c0.3-0.2,0.6-0.4,1-0.5S11.3,0,11.7,0
		c0.4,0,0.9,0.1,1.3,0.2c0.4,0.1,0.7,0.3,1,0.5c0.3,0.2,0.5,0.5,0.7,0.9C14.9,1.9,15,2.3,15,2.7h-1.5c0-0.6-0.2-0.9-0.6-1.2
		s-0.8-0.3-1.3-0.3c-0.2,0-0.4,0-0.5,0.1c-0.2,0-0.4,0.1-0.5,0.2c-0.2,0.1-0.3,0.2-0.4,0.3c-0.1,0.1-0.1,0.3-0.1,0.5
		c0,0.3,0.1,0.5,0.3,0.7c0.2,0.2,0.4,0.3,0.7,0.4c0,0,0.2,0,0.4,0.1c0.2,0.1,0.5,0.1,0.7,0.2C12.5,3.8,12.7,3.9,13,4
		c0.3,0.1,0.4,0.1,0.6,0.1c0.3,0.1,0.5,0.2,0.7,0.4c0.2,0.2,0.4,0.3,0.5,0.5c0.1,0.2,0.2,0.4,0.3,0.6c0.1,0.2,0.1,0.4,0.1,0.7
		c0,0.5-0.1,0.9-0.3,1.2c-0.2,0.3-0.5,0.6-0.8,0.8c-0.3,0.2-0.7,0.4-1.1,0.5C12.7,8.9,12.2,9,11.8,9c-0.5,0-0.9-0.1-1.4-0.2
		C10,8.7,9.6,8.5,9.3,8.2s-0.6-0.6-0.8-1C8.4,6.9,8.3,6.4,8.2,5.9H9.7z"/>
	<path class="st1" d="M16.5,0.2h6.2v1.3H18v2.2h4.3V5H18v2.5h4.8v1.3h-6.3V0.2z"/>
	<path class="st1" d="M26.4,0.2H28l3.3,8.6h-1.6l-0.8-2.3h-3.4l-0.8,2.3h-1.5L26.4,0.2z M25.9,5.4h2.6l-1.3-3.7h0L25.9,5.4z"/>
	<path class="st1" d="M32.1,0.2h4.1c0.9,0,1.7,0.2,2.1,0.6c0.5,0.4,0.7,1,0.7,1.7c0,0.4-0.1,0.7-0.2,1c-0.1,0.3-0.3,0.5-0.4,0.6
		s-0.3,0.3-0.5,0.4c-0.2,0.1-0.3,0.1-0.3,0.1v0c0.1,0,0.3,0.1,0.4,0.1c0.1,0.1,0.3,0.2,0.4,0.3c0.1,0.1,0.2,0.3,0.3,0.5
		c0.1,0.2,0.1,0.5,0.1,0.8c0,0.5,0,1,0.1,1.4c0.1,0.4,0.2,0.7,0.4,0.9h-1.6c-0.1-0.2-0.2-0.4-0.2-0.6s0-0.4,0-0.6c0-0.4,0-0.7-0.1-1
		S37.3,6,37.2,5.8s-0.3-0.3-0.5-0.4c-0.2-0.1-0.5-0.1-0.8-0.1h-2.2v3.5h-1.5V0.2z M33.6,4.1h2.5c0.5,0,0.8-0.1,1.1-0.3
		c0.2-0.2,0.4-0.6,0.4-1c0-0.3,0-0.5-0.1-0.7c-0.1-0.2-0.2-0.3-0.3-0.4c-0.1-0.1-0.3-0.2-0.5-0.2c-0.2,0-0.4,0-0.6,0h-2.4V4.1z"/>
	<path class="st1" d="M46.3,2.9c-0.1-0.2-0.2-0.5-0.3-0.7C46,2,45.8,1.9,45.6,1.7c-0.2-0.2-0.4-0.3-0.6-0.4s-0.5-0.1-0.8-0.1
		c-0.5,0-0.9,0.1-1.2,0.3s-0.6,0.4-0.8,0.7c-0.2,0.3-0.4,0.7-0.5,1.1s-0.1,0.8-0.1,1.2c0,0.4,0,0.8,0.1,1.2s0.3,0.7,0.5,1
		C42.4,7,42.7,7.3,43,7.5s0.7,0.3,1.2,0.3c0.3,0,0.6-0.1,0.9-0.2c0.3-0.1,0.5-0.3,0.7-0.5c0.2-0.2,0.3-0.4,0.4-0.7
		c0.1-0.3,0.2-0.6,0.2-0.9h1.5c0,0.5-0.1,1-0.3,1.4c-0.2,0.4-0.4,0.8-0.8,1.1c-0.3,0.3-0.7,0.5-1.1,0.7C45.2,8.9,44.7,9,44.2,9
		c-0.6,0-1.2-0.1-1.7-0.4s-0.9-0.6-1.3-1c-0.4-0.4-0.6-0.9-0.8-1.4s-0.3-1.1-0.3-1.7c0-0.6,0.1-1.2,0.3-1.7c0.2-0.5,0.5-1,0.8-1.4
		c0.4-0.4,0.8-0.7,1.3-1C43,0.1,43.6,0,44.2,0c0.5,0,0.9,0.1,1.4,0.2c0.4,0.1,0.8,0.3,1.1,0.6C47,1,47.3,1.3,47.5,1.7
		c0.2,0.4,0.3,0.8,0.4,1.2H46.3z"/>
	<path class="st1" d="M49.2,0.2h1.5v3.4h3.9V0.2h1.5v8.6h-1.5V4.9h-3.9v3.9h-1.5V0.2z"/>
	<path class="st1" d="M57.9,0.2H64v1.3h-4.7v2.2h4.3V5h-4.3v2.5h4.8v1.3h-6.3V0.2z"/>
	<path class="st1" d="M66.4,5.9c0,0.3,0.1,0.6,0.2,0.8c0.1,0.2,0.3,0.4,0.5,0.6c0.2,0.1,0.4,0.3,0.7,0.3c0.3,0.1,0.5,0.1,0.8,0.1
		c0.3,0,0.6,0,0.8-0.1c0.2-0.1,0.4-0.2,0.6-0.3c0.1-0.1,0.2-0.3,0.3-0.4c0.1-0.2,0.1-0.3,0.1-0.5c0-0.3-0.1-0.6-0.2-0.7
		c-0.1-0.2-0.3-0.3-0.5-0.3c-0.3-0.1-0.7-0.2-1.1-0.3s-0.9-0.2-1.5-0.4c-0.4-0.1-0.7-0.2-0.9-0.4C66,4.2,65.8,4,65.6,3.8
		c-0.1-0.2-0.2-0.4-0.3-0.6c-0.1-0.2-0.1-0.4-0.1-0.7c0-0.4,0.1-0.8,0.3-1.1c0.2-0.3,0.4-0.6,0.7-0.8c0.3-0.2,0.6-0.4,1-0.5
		S68,0,68.4,0c0.4,0,0.9,0.1,1.3,0.2c0.4,0.1,0.7,0.3,1,0.5c0.3,0.2,0.5,0.5,0.7,0.9c0.2,0.3,0.3,0.7,0.3,1.2h-1.5
		c0-0.6-0.2-0.9-0.6-1.2s-0.8-0.3-1.3-0.3c-0.2,0-0.4,0-0.5,0.1c-0.2,0-0.4,0.1-0.5,0.2c-0.2,0.1-0.3,0.2-0.4,0.3
		c-0.1,0.1-0.1,0.3-0.1,0.5c0,0.3,0.1,0.5,0.3,0.7c0.2,0.2,0.4,0.3,0.7,0.4c0,0,0.2,0,0.4,0.1c0.2,0.1,0.5,0.1,0.7,0.2
		c0.3,0.1,0.5,0.1,0.8,0.2c0.3,0.1,0.4,0.1,0.6,0.1c0.3,0.1,0.5,0.2,0.7,0.4c0.2,0.2,0.4,0.3,0.5,0.5c0.1,0.2,0.2,0.4,0.3,0.6
		c0.1,0.2,0.1,0.4,0.1,0.7c0,0.5-0.1,0.9-0.3,1.2s-0.5,0.6-0.8,0.8c-0.3,0.2-0.7,0.4-1.1,0.5C69.3,8.9,68.9,9,68.5,9
		c-0.5,0-0.9-0.1-1.4-0.2c-0.4-0.1-0.8-0.3-1.1-0.6s-0.6-0.6-0.8-1c-0.2-0.4-0.3-0.8-0.3-1.4H66.4z"/>
</g>
</svg>
